<svg xmlns="http://www.w3.org/2000/svg" viewBox="0 0 600 400" fill="none">
  <rect width="600" height="400" fill="#0F172A"/>
  <rect x="20" y="20" width="560" height="360" rx="16" fill="#1E293B" stroke="#334155" stroke-width="2"/>
  <circle cx="300" cy="170" r="90" fill="#2563EB" opacity="0.15"/>
  <path d="M120 250C120 220 150 180 200 170L280 140C320 125 380 125 430 145L480 170C510 185 520 210 520 250V270H120V250Z" fill="#2563EB"/>
  <path d="M210 175L275 145H370L425 175H210Z" fill="#93C5FD" opacity="0.7"/>
  <circle cx="210" cy="270" r="32" fill="#0F172A" stroke="#94A3B8" stroke-width="6"/>
  <circle cx="430" cy="270" r="32" fill="#0F172A" stroke="#94A3B8" stroke-width="6"/>
  <circle cx="210" cy="270" r="14" fill="#64748B"/>
  <circle cx="430" cy="270" r="14" fill="#64748B"/>
  <rect x="490" y="225" width="20" height="15" rx="4" fill="#EF4444"/>
  <text x="300" y="345" text-anchor="middle" fill="#F8FAFC" font-family="system-ui" font-size="22" font-weight="700">HONDA BRIO E CVT</text>
  <text x="300" y="370" text-anchor="middle" fill="#60A5FA" font-family="system-ui" font-size="14" font-weight="600">City Car Automatic • 5 Seats</text>
</svg>
