<svg xmlns="http://www.w3.org/2000/svg" viewBox="0 0 600 400" fill="none">
  <rect width="600" height="400" fill="#0F172A"/>
  <rect x="20" y="20" width="560" height="360" rx="16" fill="#1E293B" stroke="#334155" stroke-width="2"/>
  <circle cx="300" cy="170" r="90" fill="#1D4ED8" opacity="0.2"/>
  <path d="M95 255C95 210 135 155 195 145L285 130C345 118 425 120 475 145L520 170C540 185 545 210 545 255V270H95V255Z" fill="#1D4ED8"/>
  <path d="M185 152L270 135H385L460 152H185Z" fill="#93C5FD" opacity="0.8"/>
  <circle cx="185" cy="270" r="35" fill="#0F172A" stroke="#CBD5E1" stroke-width="7"/>
  <circle cx="445" cy="270" r="35" fill="#0F172A" stroke="#CBD5E1" stroke-width="7"/>
  <circle cx="185" cy="270" r="14" fill="#64748B"/>
  <circle cx="445" cy="270" r="14" fill="#64748B"/>
  <text x="300" y="345" text-anchor="middle" fill="#F8FAFC" font-family="system-ui" font-size="22" font-weight="700">MITSUBISHI XPANDER ULTIMATE CVT</text>
  <text x="300" y="370" text-anchor="middle" fill="#60A5FA" font-family="system-ui" font-size="14" font-weight="600">MPV Premium CVT • 7 Seats</text>
</svg>
